<svg xmlns="http://www.w3.org/2000/svg" width="22.576" height="22.012" viewBox="0 0 22.576 22.012">
  <path id="Icon_awesome-github" data-name="Icon awesome-github" d="M7.551,18.286c0,.091-.1.164-.237.164-.15.014-.255-.059-.255-.164s.1-.164.237-.164S7.551,18.182,7.551,18.286Zm-1.416-.2c-.032.091.059.2.2.223a.213.213,0,0,0,.282-.091c.027-.091-.059-.2-.2-.237A.234.234,0,0,0,6.135,18.081ZM8.147,18c-.132.032-.223.118-.209.223s.132.15.269.118.223-.118.209-.209S8.279,17.99,8.147,18ZM11.142.563A10.914,10.914,0,0,0,0,11.668,11.411,11.411,0,0,0,7.715,22.556c.583.1.787-.255.787-.551s-.014-1.839-.014-2.795c0,0-3.186.683-3.855-1.356,0,0-.519-1.324-1.265-1.666,0,0-1.042-.715.073-.7A2.4,2.4,0,0,1,5.2,16.661a2.406,2.406,0,0,0,3.318.951,2.53,2.53,0,0,1,.728-1.534C6.7,15.8,4.133,15.428,4.133,11.049A3.45,3.45,0,0,1,5.207,8.368a4.3,4.3,0,0,1,.118-3.09c.951-.3,3.141,1.229,3.141,1.229a10.753,10.753,0,0,1,5.717,0s2.189-1.529,3.141-1.229a4.3,4.3,0,0,1,.118,3.09,3.538,3.538,0,0,1,1.174,2.681c0,4.392-2.681,4.743-5.225,5.029a2.692,2.692,0,0,1,.774,2.112c0,1.534-.014,3.432-.014,3.805,0,.3.209.655.787.551a11.306,11.306,0,0,0,7.637-10.878A11.16,11.16,0,0,0,11.142.563Zm-6.718,15.7c-.059.046-.046.15.032.237s.178.1.237.046.046-.15-.032-.237S4.483,16.2,4.424,16.261Zm-.492-.369c-.032.059.014.132.1.178a.135.135,0,0,0,.2-.032c.032-.059-.014-.132-.1-.178C4.037,15.833,3.964,15.847,3.933,15.892Zm1.475,1.62c-.073.059-.046.2.059.282.1.1.237.118.3.046s.032-.2-.059-.282C5.6,17.453,5.466,17.44,5.407,17.512Zm-.519-.669c-.073.046-.073.164,0,.269s.2.15.255.1a.208.208,0,0,0,0-.282C5.08,16.83,4.961,16.784,4.888,16.843Z" transform="translate(0 -0.563)"/>
</svg>
