<svg xmlns="http://www.w3.org/2000/svg" width="21.5" height="21.5" viewBox="0 0 21.5 21.5">
  <path id="Icon_awesome-linkedin" data-name="Icon awesome-linkedin" d="M19.964,2.25H1.531A1.542,1.542,0,0,0,0,3.8V22.2a1.542,1.542,0,0,0,1.531,1.55H19.964A1.546,1.546,0,0,0,21.5,22.2V3.8A1.546,1.546,0,0,0,19.964,2.25ZM6.5,20.679H3.311V10.418H6.5v10.26ZM4.9,9.017A1.848,1.848,0,1,1,6.752,7.169,1.848,1.848,0,0,1,4.9,9.017ZM18.443,20.679H15.256V15.688c0-1.19-.024-2.721-1.656-2.721-1.66,0-1.915,1.3-1.915,2.635v5.077H8.5V10.418h3.057v1.4H11.6a3.356,3.356,0,0,1,3.019-1.656c3.225,0,3.825,2.126,3.825,4.89Z" transform="translate(0 -2.25)"/>
</svg>
