<svg xmlns="http://www.w3.org/2000/svg" width="22.859" height="18.566" viewBox="0 0 22.859 18.566">
  <path id="Icon_awesome-twitter" data-name="Icon awesome-twitter" d="M20.509,8.008c.015.2.015.406.015.609a13.238,13.238,0,0,1-13.33,13.33A13.239,13.239,0,0,1,0,19.843a9.692,9.692,0,0,0,1.131.058,9.383,9.383,0,0,0,5.816-2,4.693,4.693,0,0,1-4.38-3.249,5.908,5.908,0,0,0,.885.073,4.955,4.955,0,0,0,1.233-.16,4.686,4.686,0,0,1-3.757-4.6V9.908a4.718,4.718,0,0,0,2.118.595A4.692,4.692,0,0,1,1.6,4.237a13.317,13.317,0,0,0,9.66,4.9,5.289,5.289,0,0,1-.116-1.073A4.689,4.689,0,0,1,19.248,4.86a9.224,9.224,0,0,0,2.973-1.131,4.672,4.672,0,0,1-2.06,2.582,9.392,9.392,0,0,0,2.7-.725,10.071,10.071,0,0,1-2.35,2.422Z" transform="translate(0 -3.381)"/>
</svg>
